<?xml version="1.0" encoding="UTF-8"?>
<svg id="Layer_1" xmlns="http://www.w3.org/2000/svg" version="1.1" viewBox="0 0 725.41 216.64">
  <!-- Generator: Adobe Illustrator 29.6.0, SVG Export Plug-In . SVG Version: 2.1.1 Build 207)  -->
  <defs>
    <style>
      .st0 {
        fill: #64d894;
      }

      .st1 {
        fill: #0a2d29;
      }
    </style>
  </defs>
  <g>
    <path class="st1" d="M74.95,75.95l-6.94,28.18c-.67,2.82-1.2,5.52-1.64,8.01-.52-2.56-1.18-5.34-1.99-8.23l-7.61-27.96h-18.03l-7.21,28.02c-.72,2.9-1.31,5.69-1.79,8.28-.49-2.54-1.1-5.29-1.84-8.17l-7.34-28.13H0l17.92,64.67h21.81l6.42-25.42c.54-2.19,1-4.31,1.39-6.29.41,1.97.89,4.07,1.47,6.22l7.1,25.48h21.92l17.08-64.67h-20.16Z"/>
    <path class="st1" d="M125.44,74.52c-19.27,0-30.77,12.53-30.77,33.51s11.79,34.16,30.77,34.16,30.77-13.09,30.77-34.16-11.5-33.51-30.77-33.51ZM136.5,108.16c0,15.46-5.91,17.45-11.06,17.45s-10.93-1.99-10.93-17.45,5.84-16.67,10.93-16.67,11.06,1.89,11.06,16.67Z"/>
    <path class="st1" d="M180.71,85.32l-1.04-9.36h-17.65v64.67h19.97v-30.77c0-10.56,7.06-14.32,13.67-14.32,2.16,0,3.8.2,5.68.71l2.55.68,2.02-22.15-2.32-.12c-10.72-.56-18.39,3.02-22.88,10.66Z"/>
    <polygon class="st1" points="271.38 75.95 247.42 75.95 230.71 98.5 230.71 49.1 210.73 49.1 210.73 140.63 230.71 140.63 230.71 115.08 230.98 115.08 249.22 140.63 273.19 140.63 247.57 106.24 271.38 75.95"/>
    <path class="st1" d="M340.27,123.78c-1.71,0-3.1-1.4-3.1-3.11V48.81s-1.97.24-1.97.24c-7.1.88-14.28.56-21.34-.56-1.86-.3-3.78-.43-5.9-.43-16.08,0-25.69,9.41-25.69,25.17v2.72h-8.87v16.58h8.87v48.09h19.97v-48.09h8.79v-16.58h-8.79v-3.24c0-5.59,2.36-8.19,7.41-8.19,2.71,0,5.04.59,7.41,1.9v58.55c0,10.38,6.9,16.83,18,16.83,2.98,0,5.98-.47,9.73-1.51l1.54-.44.92-18.29-3.33,1.51c-1.09.5-2.21.71-3.65.71Z"/>
    <path class="st1" d="M380.8,74.52c-19.27,0-30.77,12.53-30.77,33.51s11.79,34.16,30.77,34.16,30.77-13.09,30.77-34.16-11.5-33.51-30.77-33.51ZM391.87,108.16c0,15.46-5.92,17.45-11.06,17.45s-10.94-1.99-10.94-17.45,5.84-16.67,10.94-16.67,11.06,1.89,11.06,16.67Z"/>
    <path class="st1" d="M485.61,75.95l-6.94,28.18c-.66,2.82-1.2,5.53-1.63,8.02-.53-2.57-1.19-5.35-1.99-8.24l-7.61-27.96h-18.03l-7.21,28.02c-.72,2.9-1.31,5.69-1.79,8.28-.49-2.54-1.1-5.29-1.84-8.17l-7.34-28.13h-20.56l17.92,64.67h21.81l6.42-25.42c.54-2.19,1-4.31,1.39-6.29.41,1.97.89,4.07,1.47,6.22l7.1,25.48h21.92l17.08-64.67h-20.15Z"/>
  </g>
  <g>
    <path class="st0" d="M725.41,108.32c0,7.38-.73,14.63-2.13,21.55-.73,3.72-1.66,7.31-2.79,10.83-13.76,44.02-54.85,75.94-103.4,75.94s-89.64-31.92-103.4-75.94c-3.19-10.17-4.92-21.08-4.92-32.38s1.73-22.21,4.92-32.38C527.45,31.92,568.55,0,617.09,0s89.64,31.92,103.4,75.94c1.07,3.39,1.99,6.98,2.72,10.57,1.47,7.04,2.2,14.29,2.2,21.81"/>
    <path class="st1" d="M560.74,75.87l-17.69,27.21-17.76-27.21h-11.64c-3.2,10.18-4.92,21.09-4.92,32.39s1.73,22.22,4.92,32.4h14.43v-21.96l13.04,21.96h3.79l13.04-21.96v21.96h23.61v-64.8h-20.82Z"/>
    <path class="st1" d="M636.45,75.87h-35.59l-16.1,64.79h25.55l1.33-7.44h16.1l1.74,7.44h24.35l-17.36-64.79ZM614.96,114.45l3.26-19.03h.8l4.32,19.03h-8.38Z"/>
    <path class="st1" d="M710.56,108.2l12.71-21.75c-.73-3.59-1.66-7.19-2.73-10.58h-17.97l-8.44,15.5-8.12-15.5h-29.14l18.96,32.39-19.29,32.4h28.93l6.92-13.91,7.39,13.91h20.76c1.13-3.53,2.06-7.12,2.79-10.85l-12.77-21.62Z"/>
  </g>
</svg>