<?xml version="1.0" encoding="UTF-8"?>
<svg id="Layer_1" xmlns="http://www.w3.org/2000/svg" version="1.1" viewBox="0 0 216.68 216.64">
  <!-- Generator: Adobe Illustrator 29.6.0, SVG Export Plug-In . SVG Version: 2.1.1 Build 207)  -->
  <defs>
    <style>
      .st0 {
        fill: #64d894;
      }

      .st1 {
        fill: #fff;
      }
    </style>
  </defs>
  <path class="st0" d="M216.68,108.32c0,7.38-.73,14.63-2.13,21.55-.73,3.72-1.66,7.31-2.79,10.83-13.76,44.02-54.85,75.94-103.4,75.94S18.73,184.72,4.97,140.7C1.77,130.52.05,119.62.05,108.32s1.73-22.21,4.92-32.38C18.73,31.92,59.82,0,108.37,0s89.64,31.92,103.4,75.94c1.07,3.39,1.99,6.98,2.72,10.57,1.47,7.04,2.2,14.29,2.2,21.81"/>
  <path class="st1" d="M52.02,75.87l-17.69,27.21-17.76-27.21H4.92C1.73,86.05,0,96.96,0,108.27s1.73,22.22,4.92,32.4h14.43v-21.96l13.04,21.96h3.79l13.04-21.96v21.96h23.61v-64.8h-20.82Z"/>
  <path class="st1" d="M127.72,75.87h-35.59l-16.1,64.79h25.55l1.33-7.44h16.1l1.74,7.44h24.35l-17.36-64.79ZM106.24,114.45l3.26-19.03h.8l4.32,19.03h-8.38Z"/>
  <path class="st1" d="M201.83,108.2l12.71-21.75c-.73-3.59-1.66-7.19-2.73-10.58h-17.97l-8.44,15.5-8.12-15.5h-29.14l18.96,32.39-19.29,32.4h28.93l6.92-13.91,7.39,13.91h20.76c1.13-3.53,2.06-7.12,2.79-10.85l-12.77-21.62Z"/>
</svg>